<svg width="32" height="32" viewBox="0 0 32 32" fill="none" xmlns="http://www.w3.org/2000/svg">
<g id="Frame 1707479188">
<path id="&#226;&#128;&#156;" d="M28 8.23077C27.0845 8.53846 26.2561 9.02564 25.515 9.69231C24.7738 10.359 24.1417 11.1282 23.6185 12C23.0954 12.8205 22.703 13.7179 22.4414 14.6923C22.1798 15.6667 22.0926 16.6154 22.1798 17.5385H25.9728C26.3215 18.1026 26.6049 18.7436 26.8229 19.4615C27.0409 20.1795 27.1499 20.8205 27.1499 21.3846C27.1499 22.2564 27.0409 23.1026 26.8229 23.9231C26.6049 24.6923 26.3215 25.3846 25.9728 26H18.6485C17.951 24.1026 17.5586 22.2821 17.4714 20.5385C17.4714 17.6154 17.9292 15.1795 18.8447 13.2308C19.8038 11.2308 20.9591 9.64103 22.3106 8.46154C23.7057 7.23077 25.2098 6.41025 26.8229 6L28 8.23077ZM14.5286 8.23077C13.6131 8.53846 12.7847 9.02564 12.0436 9.69231C11.3025 10.359 10.6703 11.1282 10.1471 12C9.62398 12.8205 9.23161 13.7179 8.97003 14.6923C8.70845 15.6667 8.62125 16.6154 8.70845 17.5385H12.5014C12.8501 18.1026 13.1335 18.7436 13.3515 19.4615C13.5695 20.1795 13.6785 20.8205 13.6785 21.3846C13.6785 22.2564 13.5695 23.1026 13.3515 23.9231C13.1335 24.6923 12.8501 25.3846 12.5014 26H5.17711C4.47956 24.1026 4.08719 22.2821 4 20.5385C4 17.6154 4.45777 15.1795 5.3733 13.2308C6.33243 11.2308 7.48774 9.64103 8.83924 8.46154C10.2343 7.23077 11.7384 6.41025 13.3515 6L14.5286 8.23077Z" fill="#EF4A6B"/>
</g>
</svg>
